/* XPM */
static char * dopewars_pill_xpm[] = {
"32 32 19 1",
" 	c None",
".	c #000000",
"+	c #A00000",
"@	c #0080FF",
"#	c #FF0000",
"$	c #40A0FF",
"%	c #FF2D2D",
"&	c #FFFFFF",
"*	c #FE1111",
"=	c #FF0D0D",
"-	c #3FA0FF",
";	c #FC0000",
">	c #3E9FFF",
",	c #FA0000",
"'	c #0C1E30",
")	c #3D9EFF",
"!	c #081521",
"~	c #FD0000",
"{	c #210000",
"                                ",
"                                ",
"                                ",
"                                ",
"                                ",
"                                ",
"                                ",
"                                ",
"                                ",
"     ......................     ",
"    ..+++++++++.@@@@@@@@@@..    ",
"   .+++#######+.@$$$$$$$$@@@.   ",
"  .++%&&######+.@$$$$$$$$$$@@.  ",
"  .+*&&=######+.@$$$$$$$$$$-@.  ",
" .++#&########+.@$$$$$$$$$$$@@. ",
" .+##&########+.@$$$$$$$$$$$$@. ",
" .+###########+.@$$$$$$$$$$$$@. ",
" .+###########+.@$$$$$$$$$$$$@. ",
" .+;##########+.@$$$$$$$$$$$>@. ",
" .++##########+.@$.$$..$..$$@@. ",
"  .+,#########+.@$$.$.&$'$$)@.  ",
"  .++#########+.@$$$...$!$$@@.  ",
"   .+++~~~~~~~+.@$$$$$$$$@@@.   ",
"    .{+++++++++.@@@@@@@@@@..    ",
"     ......................     ",
"                                ",
"                                ",
"                                ",
"                                ",
"                                ",
"                                ",
"                                "};
