/* XPM */
static char * dopewars_pill_xpm[] = {
"39 39 8 1",
" 	c None",
".	c #000000",
"+	c #A00000",
"@	c #0080FF",
"#	c #FF0000",
"$	c #40A0FF",
"%	c #FFFFFF",
"&	c #00FFFF",
"                                       ",
"                                       ",
"                                       ",
"                                       ",
"                                       ",
"                                       ",
"                                       ",
"                                       ",
"                                       ",
"                                       ",
"                                       ",
"      ...........................      ",
"     ..++++++++++++.@@@@@@@@@@@@..     ",
"    .+++##########+.@$$$$$$$$$$@@@.    ",
"   .++############+.@$$$$$$$$$$$$@@.   ",
"  .++##%%#########+.@$$$$$$$$$$$$$@@.  ",
"  .+##%%##########+.@$$$$$$$$$$$$$$@.  ",
" .++##%###########+.@$$$$$$$$$$$$$$@@. ",
" .+##%%###########+.@$$$$$$$$$$$$$$$@. ",
" .+###############+.@$$$$$$$$$$$$$$$@. ",
" .+###############+.@$$$$$$$$$$$$$$$@. ",
" .+###############+.@$$$$$$$$$$$$$$$@. ",
" .+###############+.@$$$$$$$$$$$$$$$@. ",
" .++##############+.@$$$$$$$$$$$$$$@@. ",
"  .+##############+.@$.$$...$..$$$$@.  ",
"  .++#############+.@$$.$.&$$.$$$$@@.  ",
"   .++############+.@$$$.$..$..$$@@.   ",
"    .+++##########+.@$$$$$$$$$$@@@.    ",
"     ..++++++++++++.@@@@@@@@@@@@..     ",
"      ...........................      ",
"                                       ",
"                                       ",
"                                       ",
"                                       ",
"                                       ",
"                                       ",
"                                       ",
"                                       ",
"                                       "};
